<?xml version="1.0" encoding="UTF-8" standalone="no"?>
<!-- Created with Inkscape (http://www.inkscape.org/) -->
<svg id="svg2" xmlns:rdf="http://www.w3.org/1999/02/22-rdf-syntax-ns#" xmlns="http://www.w3.org/2000/svg" height="158.24" width="657.81" version="1.1" xmlns:cc="http://creativecommons.org/ns#" xmlns:xlink="http://www.w3.org/1999/xlink" xmlns:dc="http://purl.org/dc/elements/1.1/">
 <defs id="defs4"></defs>
 <metadata id="metadata7">
  <rdf:RDF>
   <cc:Work rdf:about="">
    <dc:format>image/svg+xml</dc:format>
    <dc:type rdf:resource="http://purl.org/dc/dcmitype/StillImage"/>
    <dc:title/>
   </cc:Work>
  </rdf:RDF>
 </metadata>
 <g id="layer1" transform="translate(-44.285709,-103.39601)">
  <g id="g3239">
   <text id="text2985-3" style="letter-spacing:0px;text-anchor:middle;word-spacing:0px;text-align:center;" font-weight="normal" font-stretch="normal" xml:space="preserve" line-height="125%" font-variant="normal" y="179.34808" x="458.30038" fill="#000000"><tspan id="tspan2987-5" font-size="105.05127716px" font-style="italic" y="179.34808" x="458.30038" font-family="Jenna Sue" fill="#003366">CodersDashboard</tspan><tspan id="tspan2989-2" font-size="39.39422989px" font-style="normal" y="243.09276" x="458.30038" font-family="DJB I Love Me Some Brook">by CodeKamikazi</tspan></text>
   <g id="g3135" fill="#369" transform="matrix(1.7428571,0,0,1.7428571,44.285709,97.362189)">
    <g id="g3087" fill="#369">
     <g id="g3089">
      <path id="path3091" d="m41.751,59.098v6.119l-21.751-9.428v-5.232l21.751-9.427v6.162l-15.156,5.839,15.156,5.967z"/>
      <path id="path3093" d="m55.2,41-6.055,24.93c-0.201,0.821-0.377,1.471-0.529,1.946-0.151,0.476-0.382,0.849-0.691,1.112-0.31,0.268-0.761,0.4-1.352,0.4-1.47,0-2.206-0.637-2.206-1.902,0-0.332,0.145-1.16,0.433-2.486l6.033-24.93c0.317-1.326,0.619-2.234,0.907-2.724,0.289-0.49,0.851-0.735,1.688-0.735,0.721,0,1.271,0.173,1.653,0.519s0.573,0.822,0.573,1.427c0,0.447-0.152,1.261-0.454,2.443z"/>
      <path id="path3095" d="M80,55.789,58.249,65.26v-6.119l15.2-5.967-15.2-5.882v-6.076l21.751,9.384v5.189z"/>
     </g>
     <path id="path3097" d="M94,6h-88c-3.313,0-6,2.687-6,6v76c0,3.312,2.687,6,6,6h88c3.314,0,6-2.688,6-6v-76c0-3.314-2.686-6-6-6zm-15,4c2.205,0,4,1.794,4,4s-1.795,4-4,4-4-1.794-4-4,1.795-4,4-4zm-11,0c2.205,0,4,1.794,4,4s-1.795,4-4,4-4-1.794-4-4,1.795-4,4-4zm26,78h-88v-66h88v66zm-4-70c-2.205,0-4-1.794-4-4s1.795-4,4-4,4,1.794,4,4-1.795,4-4,4z"/>
    </g>
   </g>
  </g>
 </g>
</svg>
